<?xml version="1.0" encoding="UTF-8" standalone="no"?><svg xmlns="http://www.w3.org/2000/svg" xmlns:xlink="http://www.w3.org/1999/xlink" contentScriptType="application/ecmascript" contentStyleType="text/css" height="964px" preserveAspectRatio="none" style="width:1616px;height:964px;" version="1.1" viewBox="0 0 1616 964" width="1616px" zoomAndPan="magnify"><defs><filter height="300%" id="f199mnhfgpiob7" width="300%" x="-1" y="-1"><feGaussianBlur result="blurOut" stdDeviation="2.0"/><feColorMatrix in="blurOut" result="blurOut2" type="matrix" values="0 0 0 0 0 0 0 0 0 0 0 0 0 0 0 0 0 0 .4 0"/><feOffset dx="4.0" dy="4.0" in="blurOut2" result="blurOut3"/><feBlend in="SourceGraphic" in2="blurOut3" mode="normal"/></filter></defs><g><!--cluster common--><polygon fill="#FFFFFF" filter="url(#f199mnhfgpiob7)" points="692,558,757,558,764,581.6094,1218,581.6094,1218,946,692,946,692,558" style="stroke: #000000; stroke-width: 1.5;"/><line style="stroke: #000000; stroke-width: 1.5;" x1="692" x2="764" y1="581.6094" y2="581.6094"/><text fill="#000000" font-family="sans-serif" font-size="14" font-weight="bold" lengthAdjust="spacingAndGlyphs" textLength="59" x="696" y="574.5332">common</text><!--cluster solution--><polygon fill="#FFFFFF" filter="url(#f199mnhfgpiob7)" points="590,24,653,24,660,47.6094,1594,47.6094,1594,534,590,534,590,24" style="stroke: #000000; stroke-width: 1.5;"/><line style="stroke: #000000; stroke-width: 1.5;" x1="590" x2="660" y1="47.6094" y2="47.6094"/><text fill="#000000" font-family="sans-serif" font-size="14" font-weight="bold" lengthAdjust="spacingAndGlyphs" textLength="57" x="594" y="40.5332">solution</text><!--cluster solution.people--><polygon fill="#FFFFFF" filter="url(#f199mnhfgpiob7)" points="22,180.5,138,180.5,145,204.1094,566,204.1094,566,322.5,22,322.5,22,180.5" style="stroke: #000000; stroke-width: 1.5;"/><line style="stroke: #000000; stroke-width: 1.5;" x1="22" x2="145" y1="204.1094" y2="204.1094"/><text fill="#000000" font-family="sans-serif" font-size="14" font-weight="bold" lengthAdjust="spacingAndGlyphs" textLength="110" x="26" y="197.0332">solution.people</text><!--class common.BankAccount$Money--><rect fill="#FEFECE" filter="url(#f199mnhfgpiob7)" height="172.5234" id="common.BankAccount$Money" style="stroke: #A80036; stroke-width: 1.5;" width="263" x="920.5" y="757"/><ellipse cx="991.25" cy="773" fill="#ADD1B2" rx="11" ry="11" style="stroke: #A80036; stroke-width: 1.0;"/><path d="M994.0156,768.875 Q994.1719,768.6563 994.3594,768.5469 Q994.5469,768.4375 994.7656,768.4375 Q995.1406,768.4375 995.375,768.6953 Q995.6094,768.9531 995.6094,769.5625 L995.6094,771.0156 Q995.6094,771.625 995.375,771.8906 Q995.1406,772.1563 994.7656,772.1563 Q994.4219,772.1563 994.2188,771.9531 Q994.0156,771.7656 993.9063,771.25 Q993.8594,770.8906 993.6719,770.7031 Q993.3438,770.3281 992.7344,770.1094 Q992.125,769.8906 991.5,769.8906 Q990.7344,769.8906 990.1016,770.2188 Q989.4688,770.5469 988.9766,771.2969 Q988.4844,772.0469 988.4844,773.0781 L988.4844,774.1719 Q988.4844,775.4063 989.375,776.2266 Q990.2656,777.0469 991.8594,777.0469 Q992.7969,777.0469 993.4531,776.7969 Q993.8438,776.6406 994.2656,776.2031 Q994.5313,775.9375 994.6797,775.8594 Q994.8281,775.7813 995.0313,775.7813 Q995.3594,775.7813 995.6172,776.0391 Q995.875,776.2969 995.875,776.6406 Q995.875,776.9844 995.5313,777.3906 Q995.0313,777.9688 994.2344,778.2969 Q993.1563,778.75 991.8594,778.75 Q990.3438,778.75 989.1406,778.125 Q988.1563,777.625 987.4688,776.5547 Q986.7813,775.4844 986.7813,774.2031 L986.7813,773.0469 Q986.7813,771.7188 987.3984,770.5703 Q988.0156,769.4219 989.1094,768.8047 Q990.2031,768.1875 991.4375,768.1875 Q992.1719,768.1875 992.8203,768.3516 Q993.4688,768.5156 994.0156,768.875 Z "/><text fill="#000000" font-family="sans-serif" font-size="12" lengthAdjust="spacingAndGlyphs" textLength="113" x="1011.75" y="777.9102">BankAccount$Money</text><line style="stroke: #A80036; stroke-width: 1.5;" x1="921.5" x2="1182.5" y1="789" y2="789"/><rect fill="none" height="6" style="stroke: #C82930; stroke-width: 1.0;" width="6" x="928.5" y="798.418"/><text fill="#000000" font-family="sans-serif" font-size="11" lengthAdjust="spacingAndGlyphs" textLength="61" x="940.5" y="804.4189">double value</text><rect fill="none" height="6" style="stroke: #C82930; stroke-width: 1.0;" width="6" x="928.5" y="812.2539"/><text fill="#000000" font-family="sans-serif" font-size="11" lengthAdjust="spacingAndGlyphs" textLength="91" x="940.5" y="818.2549">boolean consumed</text><line style="stroke: #A80036; stroke-width: 1.5;" x1="921.5" x2="1182.5" y1="824.6719" y2="824.6719"/><rect fill="#F24D5C" height="6" style="stroke: #C82930; stroke-width: 1.0;" width="6" x="928.5" y="834.0898"/><text fill="#000000" font-family="sans-serif" font-size="11" lengthAdjust="spacingAndGlyphs" textLength="88" x="940.5" y="840.0908">void &lt;init&gt;(double)</text><rect fill="#F24D5C" height="6" style="stroke: #C82930; stroke-width: 1.0;" width="6" x="928.5" y="847.9258"/><text fill="#000000" font-family="sans-serif" font-size="11" lengthAdjust="spacingAndGlyphs" textLength="115" x="940.5" y="853.9268">double consumeValue()</text><ellipse cx="931.5" cy="864.7617" fill="#84BE84" rx="3" ry="3" style="stroke: #038048; stroke-width: 1.0;"/><text fill="#000000" font-family="sans-serif" font-size="11" lengthAdjust="spacingAndGlyphs" textLength="122" x="940.5" y="867.7627">java.lang.String toString()</text><ellipse cx="931.5" cy="878.5977" fill="#84BE84" rx="3" ry="3" style="stroke: #038048; stroke-width: 1.0;"/><text fill="#000000" font-family="sans-serif" font-size="11" lengthAdjust="spacingAndGlyphs" textLength="86" x="940.5" y="881.5986">double getValue()</text><ellipse cx="931.5" cy="892.4336" fill="#84BE84" rx="3" ry="3" style="stroke: #038048; stroke-width: 1.0;"/><text fill="#000000" font-family="sans-serif" font-size="11" lengthAdjust="spacingAndGlyphs" textLength="108" x="940.5" y="895.4346">boolean isConsumed()</text><rect fill="#F24D5C" height="6" style="stroke: #C82930; stroke-width: 1.0;" width="6" x="928.5" y="903.2695"/><text fill="#000000" font-family="sans-serif" font-size="11" lengthAdjust="spacingAndGlyphs" text-decoration="underline" textLength="237" x="940.5" y="909.2705">double access$0(common.BankAccount$Money)</text><line style="stroke: #000000; stroke-width: 1.0;" x1="940.5" x2="1177.5" y1="911.2705" y2="911.2705"/><rect fill="#F24D5C" height="6" style="stroke: #C82930; stroke-width: 1.0;" width="6" x="928.5" y="917.1055"/><text fill="#000000" font-family="sans-serif" font-size="11" lengthAdjust="spacingAndGlyphs" textLength="237" x="940.5" y="923.1064">void &lt;init&gt;(double,common.BankAccount$Money)</text><!--class common.BankAccount--><rect fill="#FEFECE" filter="url(#f199mnhfgpiob7)" height="103.3438" id="common.BankAccount" style="stroke: #A80036; stroke-width: 1.5;" width="262" x="708" y="594"/><ellipse cx="799.25" cy="610" fill="#ADD1B2" rx="11" ry="11" style="stroke: #A80036; stroke-width: 1.0;"/><path d="M802.0156,605.875 Q802.1719,605.6563 802.3594,605.5469 Q802.5469,605.4375 802.7656,605.4375 Q803.1406,605.4375 803.375,605.6953 Q803.6094,605.9531 803.6094,606.5625 L803.6094,608.0156 Q803.6094,608.625 803.375,608.8906 Q803.1406,609.1563 802.7656,609.1563 Q802.4219,609.1563 802.2188,608.9531 Q802.0156,608.7656 801.9063,608.25 Q801.8594,607.8906 801.6719,607.7031 Q801.3438,607.3281 800.7344,607.1094 Q800.125,606.8906 799.5,606.8906 Q798.7344,606.8906 798.1016,607.2188 Q797.4688,607.5469 796.9766,608.2969 Q796.4844,609.0469 796.4844,610.0781 L796.4844,611.1719 Q796.4844,612.4063 797.375,613.2266 Q798.2656,614.0469 799.8594,614.0469 Q800.7969,614.0469 801.4531,613.7969 Q801.8438,613.6406 802.2656,613.2031 Q802.5313,612.9375 802.6797,612.8594 Q802.8281,612.7813 803.0313,612.7813 Q803.3594,612.7813 803.6172,613.0391 Q803.875,613.2969 803.875,613.6406 Q803.875,613.9844 803.5313,614.3906 Q803.0313,614.9688 802.2344,615.2969 Q801.1563,615.75 799.8594,615.75 Q798.3438,615.75 797.1406,615.125 Q796.1563,614.625 795.4688,613.5547 Q794.7813,612.4844 794.7813,611.2031 L794.7813,610.0469 Q794.7813,608.7188 795.3984,607.5703 Q796.0156,606.4219 797.1094,605.8047 Q798.2031,605.1875 799.4375,605.1875 Q800.1719,605.1875 800.8203,605.3516 Q801.4688,605.5156 802.0156,605.875 Z "/><text fill="#000000" font-family="sans-serif" font-size="12" lengthAdjust="spacingAndGlyphs" textLength="71" x="819.75" y="614.9102">BankAccount</text><line style="stroke: #A80036; stroke-width: 1.5;" x1="709" x2="969" y1="626" y2="626"/><rect fill="none" height="6" style="stroke: #C82930; stroke-width: 1.0;" width="6" x="716" y="635.418"/><text fill="#000000" font-family="sans-serif" font-size="11" lengthAdjust="spacingAndGlyphs" textLength="73" x="728" y="641.4189">double balance</text><line style="stroke: #A80036; stroke-width: 1.5;" x1="709" x2="969" y1="647.8359" y2="647.8359"/><ellipse cx="719" cy="660.2539" fill="#84BE84" rx="3" ry="3" style="stroke: #038048; stroke-width: 1.0;"/><text fill="#000000" font-family="sans-serif" font-size="11" lengthAdjust="spacingAndGlyphs" textLength="88" x="728" y="663.2549">void &lt;init&gt;(double)</text><ellipse cx="719" cy="674.0898" fill="#84BE84" rx="3" ry="3" style="stroke: #038048; stroke-width: 1.0;"/><text fill="#000000" font-family="sans-serif" font-size="11" lengthAdjust="spacingAndGlyphs" textLength="212" x="728" y="677.0908">void deposit(common.BankAccount$Money)</text><ellipse cx="719" cy="687.9258" fill="#84BE84" rx="3" ry="3" style="stroke: #038048; stroke-width: 1.0;"/><text fill="#000000" font-family="sans-serif" font-size="11" lengthAdjust="spacingAndGlyphs" textLength="236" x="728" y="690.9268">common.BankAccount$Money withdraw(double)</text><!--class common.Car--><rect fill="#FEFECE" filter="url(#f199mnhfgpiob7)" height="103.3438" id="common.Car" style="stroke: #A80036; stroke-width: 1.5;" width="177" x="708.5" y="792"/><ellipse cx="782.75" cy="808" fill="#ADD1B2" rx="11" ry="11" style="stroke: #A80036; stroke-width: 1.0;"/><path d="M785.5156,803.875 Q785.6719,803.6563 785.8594,803.5469 Q786.0469,803.4375 786.2656,803.4375 Q786.6406,803.4375 786.875,803.6953 Q787.1094,803.9531 787.1094,804.5625 L787.1094,806.0156 Q787.1094,806.625 786.875,806.8906 Q786.6406,807.1563 786.2656,807.1563 Q785.9219,807.1563 785.7188,806.9531 Q785.5156,806.7656 785.4063,806.25 Q785.3594,805.8906 785.1719,805.7031 Q784.8438,805.3281 784.2344,805.1094 Q783.625,804.8906 783,804.8906 Q782.2344,804.8906 781.6016,805.2188 Q780.9688,805.5469 780.4766,806.2969 Q779.9844,807.0469 779.9844,808.0781 L779.9844,809.1719 Q779.9844,810.4063 780.875,811.2266 Q781.7656,812.0469 783.3594,812.0469 Q784.2969,812.0469 784.9531,811.7969 Q785.3438,811.6406 785.7656,811.2031 Q786.0313,810.9375 786.1797,810.8594 Q786.3281,810.7813 786.5313,810.7813 Q786.8594,810.7813 787.1172,811.0391 Q787.375,811.2969 787.375,811.6406 Q787.375,811.9844 787.0313,812.3906 Q786.5313,812.9688 785.7344,813.2969 Q784.6563,813.75 783.3594,813.75 Q781.8438,813.75 780.6406,813.125 Q779.6563,812.625 778.9688,811.5547 Q778.2813,810.4844 778.2813,809.2031 L778.2813,808.0469 Q778.2813,806.7188 778.8984,805.5703 Q779.5156,804.4219 780.6094,803.8047 Q781.7031,803.1875 782.9375,803.1875 Q783.6719,803.1875 784.3203,803.3516 Q784.9688,803.5156 785.5156,803.875 Z "/><text fill="#000000" font-family="sans-serif" font-size="12" lengthAdjust="spacingAndGlyphs" textLength="20" x="803.25" y="812.9102">Car</text><line style="stroke: #A80036; stroke-width: 1.5;" x1="709.5" x2="884.5" y1="824" y2="824"/><rect fill="none" height="6" style="stroke: #C82930; stroke-width: 1.0;" width="6" x="716.5" y="833.418"/><text fill="#000000" font-family="sans-serif" font-size="11" lengthAdjust="spacingAndGlyphs" textLength="107" x="728.5" y="839.4189">java.lang.String status</text><line style="stroke: #A80036; stroke-width: 1.5;" x1="709.5" x2="884.5" y1="845.8359" y2="845.8359"/><ellipse cx="719.5" cy="858.2539" fill="#84BE84" rx="3" ry="3" style="stroke: #038048; stroke-width: 1.0;"/><text fill="#000000" font-family="sans-serif" font-size="11" lengthAdjust="spacingAndGlyphs" textLength="56" x="728.5" y="861.2549">void &lt;init&gt;()</text><ellipse cx="719.5" cy="872.0898" fill="#84BE84" rx="3" ry="3" style="stroke: #038048; stroke-width: 1.0;"/><text fill="#000000" font-family="sans-serif" font-size="11" lengthAdjust="spacingAndGlyphs" textLength="151" x="728.5" y="875.0908">void setStatus(java.lang.String)</text><ellipse cx="719.5" cy="885.9258" fill="#84BE84" rx="3" ry="3" style="stroke: #038048; stroke-width: 1.0;"/><text fill="#000000" font-family="sans-serif" font-size="11" lengthAdjust="spacingAndGlyphs" textLength="131" x="728.5" y="888.9268">java.lang.String getStatus()</text><!--class common.Mechanic--><rect fill="#FEFECE" filter="url(#f199mnhfgpiob7)" height="75.6719" id="common.Mechanic" style="stroke: #A80036; stroke-width: 1.5;" width="187" x="1005.5" y="607.5"/><ellipse cx="1068.75" cy="623.5" fill="#ADD1B2" rx="11" ry="11" style="stroke: #A80036; stroke-width: 1.0;"/><path d="M1071.5156,619.375 Q1071.6719,619.1563 1071.8594,619.0469 Q1072.0469,618.9375 1072.2656,618.9375 Q1072.6406,618.9375 1072.875,619.1953 Q1073.1094,619.4531 1073.1094,620.0625 L1073.1094,621.5156 Q1073.1094,622.125 1072.875,622.3906 Q1072.6406,622.6563 1072.2656,622.6563 Q1071.9219,622.6563 1071.7188,622.4531 Q1071.5156,622.2656 1071.4063,621.75 Q1071.3594,621.3906 1071.1719,621.2031 Q1070.8438,620.8281 1070.2344,620.6094 Q1069.625,620.3906 1069,620.3906 Q1068.2344,620.3906 1067.6016,620.7188 Q1066.9688,621.0469 1066.4766,621.7969 Q1065.9844,622.5469 1065.9844,623.5781 L1065.9844,624.6719 Q1065.9844,625.9063 1066.875,626.7266 Q1067.7656,627.5469 1069.3594,627.5469 Q1070.2969,627.5469 1070.9531,627.2969 Q1071.3438,627.1406 1071.7656,626.7031 Q1072.0313,626.4375 1072.1797,626.3594 Q1072.3281,626.2813 1072.5313,626.2813 Q1072.8594,626.2813 1073.1172,626.5391 Q1073.375,626.7969 1073.375,627.1406 Q1073.375,627.4844 1073.0313,627.8906 Q1072.5313,628.4688 1071.7344,628.7969 Q1070.6563,629.25 1069.3594,629.25 Q1067.8438,629.25 1066.6406,628.625 Q1065.6563,628.125 1064.9688,627.0547 Q1064.2813,625.9844 1064.2813,624.7031 L1064.2813,623.5469 Q1064.2813,622.2188 1064.8984,621.0703 Q1065.5156,619.9219 1066.6094,619.3047 Q1067.7031,618.6875 1068.9375,618.6875 Q1069.6719,618.6875 1070.3203,618.8516 Q1070.9688,619.0156 1071.5156,619.375 Z "/><text fill="#000000" font-family="sans-serif" font-size="12" lengthAdjust="spacingAndGlyphs" textLength="52" x="1089.25" y="628.4102">Mechanic</text><line style="stroke: #A80036; stroke-width: 1.5;" x1="1006.5" x2="1191.5" y1="639.5" y2="639.5"/><line style="stroke: #A80036; stroke-width: 1.5;" x1="1006.5" x2="1191.5" y1="647.5" y2="647.5"/><ellipse cx="1016.5" cy="659.918" fill="#84BE84" rx="3" ry="3" style="stroke: #038048; stroke-width: 1.0;"/><text fill="#000000" font-family="sans-serif" font-size="11" lengthAdjust="spacingAndGlyphs" textLength="56" x="1025.5" y="662.9189">void &lt;init&gt;()</text><ellipse cx="1016.5" cy="673.7539" fill="#84BE84" rx="3" ry="3" style="stroke: #038048; stroke-width: 1.0;"/><text fill="#000000" font-family="sans-serif" font-size="11" lengthAdjust="spacingAndGlyphs" textLength="161" x="1025.5" y="676.7549">void repairCarNOW(common.Car)</text><!--class solution.Application--><rect fill="#FEFECE" filter="url(#f199mnhfgpiob7)" height="75.6719" id="solution.Application" style="stroke: #A80036; stroke-width: 1.5;" width="159" x="643.5" y="60"/><ellipse cx="688.75" cy="76" fill="#ADD1B2" rx="11" ry="11" style="stroke: #A80036; stroke-width: 1.0;"/><path d="M691.5156,71.875 Q691.6719,71.6563 691.8594,71.5469 Q692.0469,71.4375 692.2656,71.4375 Q692.6406,71.4375 692.875,71.6953 Q693.1094,71.9531 693.1094,72.5625 L693.1094,74.0156 Q693.1094,74.625 692.875,74.8906 Q692.6406,75.1563 692.2656,75.1563 Q691.9219,75.1563 691.7188,74.9531 Q691.5156,74.7656 691.4063,74.25 Q691.3594,73.8906 691.1719,73.7031 Q690.8438,73.3281 690.2344,73.1094 Q689.625,72.8906 689,72.8906 Q688.2344,72.8906 687.6016,73.2188 Q686.9688,73.5469 686.4766,74.2969 Q685.9844,75.0469 685.9844,76.0781 L685.9844,77.1719 Q685.9844,78.4063 686.875,79.2266 Q687.7656,80.0469 689.3594,80.0469 Q690.2969,80.0469 690.9531,79.7969 Q691.3438,79.6406 691.7656,79.2031 Q692.0313,78.9375 692.1797,78.8594 Q692.3281,78.7813 692.5313,78.7813 Q692.8594,78.7813 693.1172,79.0391 Q693.375,79.2969 693.375,79.6406 Q693.375,79.9844 693.0313,80.3906 Q692.5313,80.9688 691.7344,81.2969 Q690.6563,81.75 689.3594,81.75 Q687.8438,81.75 686.6406,81.125 Q685.6563,80.625 684.9688,79.5547 Q684.2813,78.4844 684.2813,77.2031 L684.2813,76.0469 Q684.2813,74.7188 684.8984,73.5703 Q685.5156,72.4219 686.6094,71.8047 Q687.7031,71.1875 688.9375,71.1875 Q689.6719,71.1875 690.3203,71.3516 Q690.9688,71.5156 691.5156,71.875 Z "/><text fill="#000000" font-family="sans-serif" font-size="12" lengthAdjust="spacingAndGlyphs" textLength="60" x="709.25" y="80.9102">Application</text><line style="stroke: #A80036; stroke-width: 1.5;" x1="644.5" x2="801.5" y1="92" y2="92"/><line style="stroke: #A80036; stroke-width: 1.5;" x1="644.5" x2="801.5" y1="100" y2="100"/><ellipse cx="654.5" cy="112.418" fill="#84BE84" rx="3" ry="3" style="stroke: #038048; stroke-width: 1.0;"/><text fill="#000000" font-family="sans-serif" font-size="11" lengthAdjust="spacingAndGlyphs" textLength="56" x="663.5" y="115.4189">void &lt;init&gt;()</text><ellipse cx="654.5" cy="126.2539" fill="#84BE84" rx="3" ry="3" style="stroke: #038048; stroke-width: 1.0;"/><text fill="#000000" font-family="sans-serif" font-size="11" lengthAdjust="spacingAndGlyphs" text-decoration="underline" textLength="133" x="663.5" y="129.2549">void main(java.lang.String[])</text><line style="stroke: #000000; stroke-width: 1.0;" x1="663.5" x2="796.5" y1="131.2549" y2="131.2549"/><!--class solution.Customer--><rect fill="#FEFECE" filter="url(#f199mnhfgpiob7)" height="131.0156" id="solution.Customer" style="stroke: #A80036; stroke-width: 1.5;" width="389" x="845.5" y="387"/><ellipse cx="1008.25" cy="403" fill="#ADD1B2" rx="11" ry="11" style="stroke: #A80036; stroke-width: 1.0;"/><path d="M1011.0156,398.875 Q1011.1719,398.6563 1011.3594,398.5469 Q1011.5469,398.4375 1011.7656,398.4375 Q1012.1406,398.4375 1012.375,398.6953 Q1012.6094,398.9531 1012.6094,399.5625 L1012.6094,401.0156 Q1012.6094,401.625 1012.375,401.8906 Q1012.1406,402.1563 1011.7656,402.1563 Q1011.4219,402.1563 1011.2188,401.9531 Q1011.0156,401.7656 1010.9063,401.25 Q1010.8594,400.8906 1010.6719,400.7031 Q1010.3438,400.3281 1009.7344,400.1094 Q1009.125,399.8906 1008.5,399.8906 Q1007.7344,399.8906 1007.1016,400.2188 Q1006.4688,400.5469 1005.9766,401.2969 Q1005.4844,402.0469 1005.4844,403.0781 L1005.4844,404.1719 Q1005.4844,405.4063 1006.375,406.2266 Q1007.2656,407.0469 1008.8594,407.0469 Q1009.7969,407.0469 1010.4531,406.7969 Q1010.8438,406.6406 1011.2656,406.2031 Q1011.5313,405.9375 1011.6797,405.8594 Q1011.8281,405.7813 1012.0313,405.7813 Q1012.3594,405.7813 1012.6172,406.0391 Q1012.875,406.2969 1012.875,406.6406 Q1012.875,406.9844 1012.5313,407.3906 Q1012.0313,407.9688 1011.2344,408.2969 Q1010.1563,408.75 1008.8594,408.75 Q1007.3438,408.75 1006.1406,408.125 Q1005.1563,407.625 1004.4688,406.5547 Q1003.7813,405.4844 1003.7813,404.2031 L1003.7813,403.0469 Q1003.7813,401.7188 1004.3984,400.5703 Q1005.0156,399.4219 1006.1094,398.8047 Q1007.2031,398.1875 1008.4375,398.1875 Q1009.1719,398.1875 1009.8203,398.3516 Q1010.4688,398.5156 1011.0156,398.875 Z "/><text fill="#000000" font-family="sans-serif" font-size="12" lengthAdjust="spacingAndGlyphs" textLength="55" x="1028.75" y="407.9102">Customer</text><line style="stroke: #A80036; stroke-width: 1.5;" x1="846.5" x2="1233.5" y1="419" y2="419"/><polygon fill="none" points="856.5,426.418,860.5,430.418,856.5,434.418,852.5,430.418" style="stroke: #B38D22; stroke-width: 1.0;"/><text fill="#000000" font-family="sans-serif" font-size="11" lengthAdjust="spacingAndGlyphs" textLength="79" x="865.5" y="434.4189">common.Car car</text><polygon fill="none" points="856.5,440.2539,860.5,444.2539,856.5,448.2539,852.5,444.2539" style="stroke: #B38D22; stroke-width: 1.0;"/><text fill="#000000" font-family="sans-serif" font-size="11" lengthAdjust="spacingAndGlyphs" textLength="150" x="865.5" y="448.2549">common.BankAccount account</text><polygon fill="none" points="856.5,454.0898,860.5,458.0898,856.5,462.0898,852.5,458.0898" style="stroke: #B38D22; stroke-width: 1.0;"/><text fill="#000000" font-family="sans-serif" font-size="11" lengthAdjust="spacingAndGlyphs" textLength="229" x="865.5" y="462.0908">solution.InsuranceCompany insuranceCompany</text><line style="stroke: #A80036; stroke-width: 1.5;" x1="846.5" x2="1233.5" y1="468.5078" y2="468.5078"/><ellipse cx="856.5" cy="480.9258" fill="#84BE84" rx="3" ry="3" style="stroke: #038048; stroke-width: 1.0;"/><text fill="#000000" font-family="sans-serif" font-size="11" lengthAdjust="spacingAndGlyphs" textLength="363" x="865.5" y="483.9268">void &lt;init&gt;(common.Car,common.BankAccount,solution.InsuranceCompany)</text><ellipse cx="856.5" cy="494.7617" fill="#84BE84" rx="3" ry="3" style="stroke: #038048; stroke-width: 1.0;"/><text fill="#000000" font-family="sans-serif" font-size="11" lengthAdjust="spacingAndGlyphs" textLength="76" x="865.5" y="497.7627">void repairCar()</text><ellipse cx="856.5" cy="508.5977" fill="#84BE84" rx="3" ry="3" style="stroke: #038048; stroke-width: 1.0;"/><text fill="#000000" font-family="sans-serif" font-size="11" lengthAdjust="spacingAndGlyphs" textLength="142" x="865.5" y="511.5986">void payInsuranceBill(double)</text><!--class solution.InsuranceAdjuster--><rect fill="#FEFECE" filter="url(#f199mnhfgpiob7)" height="75.6719" id="solution.InsuranceAdjuster" style="stroke: #A80036; stroke-width: 1.5;" width="204" x="606" y="414.5"/><ellipse cx="653.75" cy="430.5" fill="#ADD1B2" rx="11" ry="11" style="stroke: #A80036; stroke-width: 1.0;"/><path d="M656.5156,426.375 Q656.6719,426.1563 656.8594,426.0469 Q657.0469,425.9375 657.2656,425.9375 Q657.6406,425.9375 657.875,426.1953 Q658.1094,426.4531 658.1094,427.0625 L658.1094,428.5156 Q658.1094,429.125 657.875,429.3906 Q657.6406,429.6563 657.2656,429.6563 Q656.9219,429.6563 656.7188,429.4531 Q656.5156,429.2656 656.4063,428.75 Q656.3594,428.3906 656.1719,428.2031 Q655.8438,427.8281 655.2344,427.6094 Q654.625,427.3906 654,427.3906 Q653.2344,427.3906 652.6016,427.7188 Q651.9688,428.0469 651.4766,428.7969 Q650.9844,429.5469 650.9844,430.5781 L650.9844,431.6719 Q650.9844,432.9063 651.875,433.7266 Q652.7656,434.5469 654.3594,434.5469 Q655.2969,434.5469 655.9531,434.2969 Q656.3438,434.1406 656.7656,433.7031 Q657.0313,433.4375 657.1797,433.3594 Q657.3281,433.2813 657.5313,433.2813 Q657.8594,433.2813 658.1172,433.5391 Q658.375,433.7969 658.375,434.1406 Q658.375,434.4844 658.0313,434.8906 Q657.5313,435.4688 656.7344,435.7969 Q655.6563,436.25 654.3594,436.25 Q652.8438,436.25 651.6406,435.625 Q650.6563,435.125 649.9688,434.0547 Q649.2813,432.9844 649.2813,431.7031 L649.2813,430.5469 Q649.2813,429.2188 649.8984,428.0703 Q650.5156,426.9219 651.6094,426.3047 Q652.7031,425.6875 653.9375,425.6875 Q654.6719,425.6875 655.3203,425.8516 Q655.9688,426.0156 656.5156,426.375 Z "/><text fill="#000000" font-family="sans-serif" font-size="12" lengthAdjust="spacingAndGlyphs" textLength="100" x="674.25" y="435.4102">InsuranceAdjuster</text><line style="stroke: #A80036; stroke-width: 1.5;" x1="607" x2="809" y1="446.5" y2="446.5"/><line style="stroke: #A80036; stroke-width: 1.5;" x1="607" x2="809" y1="454.5" y2="454.5"/><ellipse cx="617" cy="466.918" fill="#84BE84" rx="3" ry="3" style="stroke: #038048; stroke-width: 1.0;"/><text fill="#000000" font-family="sans-serif" font-size="11" lengthAdjust="spacingAndGlyphs" textLength="56" x="626" y="469.9189">void &lt;init&gt;()</text><ellipse cx="617" cy="480.7539" fill="#84BE84" rx="3" ry="3" style="stroke: #038048; stroke-width: 1.0;"/><text fill="#000000" font-family="sans-serif" font-size="11" lengthAdjust="spacingAndGlyphs" textLength="178" x="626" y="483.7549">double assessDamage(common.Car)</text><!--class solution.InsuranceCompany--><rect fill="#FEFECE" filter="url(#f199mnhfgpiob7)" height="131.0156" id="solution.InsuranceCompany" style="stroke: #A80036; stroke-width: 1.5;" width="308" x="606" y="196"/><ellipse cx="701.75" cy="212" fill="#ADD1B2" rx="11" ry="11" style="stroke: #A80036; stroke-width: 1.0;"/><path d="M704.5156,207.875 Q704.6719,207.6563 704.8594,207.5469 Q705.0469,207.4375 705.2656,207.4375 Q705.6406,207.4375 705.875,207.6953 Q706.1094,207.9531 706.1094,208.5625 L706.1094,210.0156 Q706.1094,210.625 705.875,210.8906 Q705.6406,211.1563 705.2656,211.1563 Q704.9219,211.1563 704.7188,210.9531 Q704.5156,210.7656 704.4063,210.25 Q704.3594,209.8906 704.1719,209.7031 Q703.8438,209.3281 703.2344,209.1094 Q702.625,208.8906 702,208.8906 Q701.2344,208.8906 700.6016,209.2188 Q699.9688,209.5469 699.4766,210.2969 Q698.9844,211.0469 698.9844,212.0781 L698.9844,213.1719 Q698.9844,214.4063 699.875,215.2266 Q700.7656,216.0469 702.3594,216.0469 Q703.2969,216.0469 703.9531,215.7969 Q704.3438,215.6406 704.7656,215.2031 Q705.0313,214.9375 705.1797,214.8594 Q705.3281,214.7813 705.5313,214.7813 Q705.8594,214.7813 706.1172,215.0391 Q706.375,215.2969 706.375,215.6406 Q706.375,215.9844 706.0313,216.3906 Q705.5313,216.9688 704.7344,217.2969 Q703.6563,217.75 702.3594,217.75 Q700.8438,217.75 699.6406,217.125 Q698.6563,216.625 697.9688,215.5547 Q697.2813,214.4844 697.2813,213.2031 L697.2813,212.0469 Q697.2813,210.7188 697.8984,209.5703 Q698.5156,208.4219 699.6094,207.8047 Q700.7031,207.1875 701.9375,207.1875 Q702.6719,207.1875 703.3203,207.3516 Q703.9688,207.5156 704.5156,207.875 Z "/><text fill="#000000" font-family="sans-serif" font-size="12" lengthAdjust="spacingAndGlyphs" textLength="108" x="722.25" y="216.9102">InsuranceCompany</text><line style="stroke: #A80036; stroke-width: 1.5;" x1="607" x2="913" y1="228" y2="228"/><rect fill="none" height="6" style="stroke: #C82930; stroke-width: 1.0;" width="6" x="614" y="237.418"/><text fill="#000000" font-family="sans-serif" font-size="11" lengthAdjust="spacingAndGlyphs" textLength="171" x="626" y="243.4189">solution.InsuranceAdjuster adjuster</text><rect fill="none" height="6" style="stroke: #C82930; stroke-width: 1.0;" width="6" x="614" y="251.2539"/><text fill="#000000" font-family="sans-serif" font-size="11" lengthAdjust="spacingAndGlyphs" textLength="152" x="626" y="257.2549">solution.RepairShop repairShop</text><rect fill="none" height="6" style="stroke: #C82930; stroke-width: 1.0;" width="6" x="614" y="265.0898"/><text fill="#000000" font-family="sans-serif" font-size="11" lengthAdjust="spacingAndGlyphs" textLength="175" x="626" y="271.0908">common.BankAccount bankAccount</text><line style="stroke: #A80036; stroke-width: 1.5;" x1="607" x2="913" y1="277.5078" y2="277.5078"/><ellipse cx="617" cy="289.9258" fill="#84BE84" rx="3" ry="3" style="stroke: #038048; stroke-width: 1.0;"/><text fill="#000000" font-family="sans-serif" font-size="11" lengthAdjust="spacingAndGlyphs" textLength="56" x="626" y="292.9268">void &lt;init&gt;()</text><ellipse cx="617" cy="303.7617" fill="#84BE84" rx="3" ry="3" style="stroke: #038048; stroke-width: 1.0;"/><text fill="#000000" font-family="sans-serif" font-size="11" lengthAdjust="spacingAndGlyphs" textLength="225" x="626" y="306.7627">void repairCar(solution.Customer,common.Car)</text><ellipse cx="617" cy="317.5977" fill="#84BE84" rx="3" ry="3" style="stroke: #038048; stroke-width: 1.0;"/><text fill="#000000" font-family="sans-serif" font-size="11" lengthAdjust="spacingAndGlyphs" textLength="282" x="626" y="320.5986">void acceptRepairPayment(common.BankAccount$Money)</text><!--class solution.RepairShop--><rect fill="#FEFECE" filter="url(#f199mnhfgpiob7)" height="117.1797" id="solution.RepairShop" style="stroke: #A80036; stroke-width: 1.5;" width="308" x="1270" y="394"/><ellipse cx="1386.75" cy="410" fill="#ADD1B2" rx="11" ry="11" style="stroke: #A80036; stroke-width: 1.0;"/><path d="M1389.5156,405.875 Q1389.6719,405.6563 1389.8594,405.5469 Q1390.0469,405.4375 1390.2656,405.4375 Q1390.6406,405.4375 1390.875,405.6953 Q1391.1094,405.9531 1391.1094,406.5625 L1391.1094,408.0156 Q1391.1094,408.625 1390.875,408.8906 Q1390.6406,409.1563 1390.2656,409.1563 Q1389.9219,409.1563 1389.7188,408.9531 Q1389.5156,408.7656 1389.4063,408.25 Q1389.3594,407.8906 1389.1719,407.7031 Q1388.8438,407.3281 1388.2344,407.1094 Q1387.625,406.8906 1387,406.8906 Q1386.2344,406.8906 1385.6016,407.2188 Q1384.9688,407.5469 1384.4766,408.2969 Q1383.9844,409.0469 1383.9844,410.0781 L1383.9844,411.1719 Q1383.9844,412.4063 1384.875,413.2266 Q1385.7656,414.0469 1387.3594,414.0469 Q1388.2969,414.0469 1388.9531,413.7969 Q1389.3438,413.6406 1389.7656,413.2031 Q1390.0313,412.9375 1390.1797,412.8594 Q1390.3281,412.7813 1390.5313,412.7813 Q1390.8594,412.7813 1391.1172,413.0391 Q1391.375,413.2969 1391.375,413.6406 Q1391.375,413.9844 1391.0313,414.3906 Q1390.5313,414.9688 1389.7344,415.2969 Q1388.6563,415.75 1387.3594,415.75 Q1385.8438,415.75 1384.6406,415.125 Q1383.6563,414.625 1382.9688,413.5547 Q1382.2813,412.4844 1382.2813,411.2031 L1382.2813,410.0469 Q1382.2813,408.7188 1382.8984,407.5703 Q1383.5156,406.4219 1384.6094,405.8047 Q1385.7031,405.1875 1386.9375,405.1875 Q1387.6719,405.1875 1388.3203,405.3516 Q1388.9688,405.5156 1389.5156,405.875 Z "/><text fill="#000000" font-family="sans-serif" font-size="12" lengthAdjust="spacingAndGlyphs" textLength="66" x="1407.25" y="414.9102">RepairShop</text><line style="stroke: #A80036; stroke-width: 1.5;" x1="1271" x2="1577" y1="426" y2="426"/><rect fill="none" height="6" style="stroke: #C82930; stroke-width: 1.0;" width="6" x="1278" y="435.418"/><text fill="#000000" font-family="sans-serif" font-size="11" lengthAdjust="spacingAndGlyphs" textLength="138" x="1290" y="441.4189">common.Mechanic mechanic</text><rect fill="none" height="6" style="stroke: #C82930; stroke-width: 1.0;" width="6" x="1278" y="449.2539"/><text fill="#000000" font-family="sans-serif" font-size="11" lengthAdjust="spacingAndGlyphs" textLength="175" x="1290" y="455.2549">common.BankAccount bankAccount</text><line style="stroke: #A80036; stroke-width: 1.5;" x1="1271" x2="1577" y1="461.6719" y2="461.6719"/><ellipse cx="1281" cy="474.0898" fill="#84BE84" rx="3" ry="3" style="stroke: #038048; stroke-width: 1.0;"/><text fill="#000000" font-family="sans-serif" font-size="11" lengthAdjust="spacingAndGlyphs" textLength="56" x="1290" y="477.0908">void &lt;init&gt;()</text><ellipse cx="1281" cy="487.9258" fill="#84BE84" rx="3" ry="3" style="stroke: #038048; stroke-width: 1.0;"/><text fill="#000000" font-family="sans-serif" font-size="11" lengthAdjust="spacingAndGlyphs" textLength="136" x="1290" y="490.9268">void repairCar(common.Car)</text><ellipse cx="1281" cy="501.7617" fill="#84BE84" rx="3" ry="3" style="stroke: #038048; stroke-width: 1.0;"/><text fill="#000000" font-family="sans-serif" font-size="11" lengthAdjust="spacingAndGlyphs" textLength="282" x="1290" y="504.7627">void acceptRepairPayment(common.BankAccount$Money)</text><!--class solution.people.Alice--><rect fill="#FEFECE" filter="url(#f199mnhfgpiob7)" height="75.6719" id="solution.people.Alice" style="stroke: #A80036; stroke-width: 1.5;" width="215" x="316.5" y="223.5"/><ellipse cx="406.75" cy="239.5" fill="#ADD1B2" rx="11" ry="11" style="stroke: #A80036; stroke-width: 1.0;"/><path d="M409.5156,235.375 Q409.6719,235.1563 409.8594,235.0469 Q410.0469,234.9375 410.2656,234.9375 Q410.6406,234.9375 410.875,235.1953 Q411.1094,235.4531 411.1094,236.0625 L411.1094,237.5156 Q411.1094,238.125 410.875,238.3906 Q410.6406,238.6563 410.2656,238.6563 Q409.9219,238.6563 409.7188,238.4531 Q409.5156,238.2656 409.4063,237.75 Q409.3594,237.3906 409.1719,237.2031 Q408.8438,236.8281 408.2344,236.6094 Q407.625,236.3906 407,236.3906 Q406.2344,236.3906 405.6016,236.7188 Q404.9688,237.0469 404.4766,237.7969 Q403.9844,238.5469 403.9844,239.5781 L403.9844,240.6719 Q403.9844,241.9063 404.875,242.7266 Q405.7656,243.5469 407.3594,243.5469 Q408.2969,243.5469 408.9531,243.2969 Q409.3438,243.1406 409.7656,242.7031 Q410.0313,242.4375 410.1797,242.3594 Q410.3281,242.2813 410.5313,242.2813 Q410.8594,242.2813 411.1172,242.5391 Q411.375,242.7969 411.375,243.1406 Q411.375,243.4844 411.0313,243.8906 Q410.5313,244.4688 409.7344,244.7969 Q408.6563,245.25 407.3594,245.25 Q405.8438,245.25 404.6406,244.625 Q403.6563,244.125 402.9688,243.0547 Q402.2813,241.9844 402.2813,240.7031 L402.2813,239.5469 Q402.2813,238.2188 402.8984,237.0703 Q403.5156,235.9219 404.6094,235.3047 Q405.7031,234.6875 406.9375,234.6875 Q407.6719,234.6875 408.3203,234.8516 Q408.9688,235.0156 409.5156,235.375 Z "/><text fill="#000000" font-family="sans-serif" font-size="12" lengthAdjust="spacingAndGlyphs" textLength="26" x="427.25" y="244.4102">Alice</text><line style="stroke: #A80036; stroke-width: 1.5;" x1="317.5" x2="530.5" y1="255.5" y2="255.5"/><line style="stroke: #A80036; stroke-width: 1.5;" x1="317.5" x2="530.5" y1="263.5" y2="263.5"/><ellipse cx="327.5" cy="275.918" fill="#84BE84" rx="3" ry="3" style="stroke: #038048; stroke-width: 1.0;"/><text fill="#000000" font-family="sans-serif" font-size="11" lengthAdjust="spacingAndGlyphs" text-decoration="underline" textLength="133" x="336.5" y="278.9189">void main(java.lang.String[])</text><line style="stroke: #000000; stroke-width: 1.0;" x1="336.5" x2="469.5" y1="280.9189" y2="280.9189"/><ellipse cx="327.5" cy="289.7539" fill="#84BE84" rx="3" ry="3" style="stroke: #038048; stroke-width: 1.0;"/><text fill="#000000" font-family="sans-serif" font-size="11" lengthAdjust="spacingAndGlyphs" textLength="189" x="336.5" y="292.7549">void &lt;init&gt;(solution.InsuranceCompany)</text><!--class solution.people.Bob--><rect fill="#FEFECE" filter="url(#f199mnhfgpiob7)" height="89.5078" id="solution.people.Bob" style="stroke: #A80036; stroke-width: 1.5;" width="243" x="38.5" y="216.5"/><ellipse cx="144.75" cy="232.5" fill="#ADD1B2" rx="11" ry="11" style="stroke: #A80036; stroke-width: 1.0;"/><path d="M147.5156,228.375 Q147.6719,228.1563 147.8594,228.0469 Q148.0469,227.9375 148.2656,227.9375 Q148.6406,227.9375 148.875,228.1953 Q149.1094,228.4531 149.1094,229.0625 L149.1094,230.5156 Q149.1094,231.125 148.875,231.3906 Q148.6406,231.6563 148.2656,231.6563 Q147.9219,231.6563 147.7188,231.4531 Q147.5156,231.2656 147.4063,230.75 Q147.3594,230.3906 147.1719,230.2031 Q146.8438,229.8281 146.2344,229.6094 Q145.625,229.3906 145,229.3906 Q144.2344,229.3906 143.6016,229.7188 Q142.9688,230.0469 142.4766,230.7969 Q141.9844,231.5469 141.9844,232.5781 L141.9844,233.6719 Q141.9844,234.9063 142.875,235.7266 Q143.7656,236.5469 145.3594,236.5469 Q146.2969,236.5469 146.9531,236.2969 Q147.3438,236.1406 147.7656,235.7031 Q148.0313,235.4375 148.1797,235.3594 Q148.3281,235.2813 148.5313,235.2813 Q148.8594,235.2813 149.1172,235.5391 Q149.375,235.7969 149.375,236.1406 Q149.375,236.4844 149.0313,236.8906 Q148.5313,237.4688 147.7344,237.7969 Q146.6563,238.25 145.3594,238.25 Q143.8438,238.25 142.6406,237.625 Q141.6563,237.125 140.9688,236.0547 Q140.2813,234.9844 140.2813,233.7031 L140.2813,232.5469 Q140.2813,231.2188 140.8984,230.0703 Q141.5156,228.9219 142.6094,228.3047 Q143.7031,227.6875 144.9375,227.6875 Q145.6719,227.6875 146.3203,227.8516 Q146.9688,228.0156 147.5156,228.375 Z "/><text fill="#000000" font-family="sans-serif" font-size="12" lengthAdjust="spacingAndGlyphs" textLength="22" x="165.25" y="237.4102">Bob</text><line style="stroke: #A80036; stroke-width: 1.5;" x1="39.5" x2="280.5" y1="248.5" y2="248.5"/><line style="stroke: #A80036; stroke-width: 1.5;" x1="39.5" x2="280.5" y1="256.5" y2="256.5"/><ellipse cx="49.5" cy="268.918" fill="#84BE84" rx="3" ry="3" style="stroke: #038048; stroke-width: 1.0;"/><text fill="#000000" font-family="sans-serif" font-size="11" lengthAdjust="spacingAndGlyphs" textLength="56" x="58.5" y="271.9189">void &lt;init&gt;()</text><ellipse cx="49.5" cy="282.7539" fill="#84BE84" rx="3" ry="3" style="stroke: #038048; stroke-width: 1.0;"/><text fill="#000000" font-family="sans-serif" font-size="11" lengthAdjust="spacingAndGlyphs" textLength="136" x="58.5" y="285.7549">void payUnderTable(double)</text><ellipse cx="49.5" cy="296.5898" fill="#84BE84" rx="3" ry="3" style="stroke: #038048; stroke-width: 1.0;"/><text fill="#000000" font-family="sans-serif" font-size="11" lengthAdjust="spacingAndGlyphs" textLength="217" x="58.5" y="299.5908">double assessDamageCheaply(common.Car)</text><!--class double--><rect fill="#FEFECE" filter="url(#f199mnhfgpiob7)" height="48" id="double" style="stroke: #A80036; stroke-width: 1.5;" width="70" x="482" y="819.5"/><ellipse cx="497" cy="835.5" fill="#ADD1B2" rx="11" ry="11" style="stroke: #A80036; stroke-width: 1.0;"/><path d="M499.7656,831.375 Q499.9219,831.1563 500.1094,831.0469 Q500.2969,830.9375 500.5156,830.9375 Q500.8906,830.9375 501.125,831.1953 Q501.3594,831.4531 501.3594,832.0625 L501.3594,833.5156 Q501.3594,834.125 501.125,834.3906 Q500.8906,834.6563 500.5156,834.6563 Q500.1719,834.6563 499.9688,834.4531 Q499.7656,834.2656 499.6563,833.75 Q499.6094,833.3906 499.4219,833.2031 Q499.0938,832.8281 498.4844,832.6094 Q497.875,832.3906 497.25,832.3906 Q496.4844,832.3906 495.8516,832.7188 Q495.2188,833.0469 494.7266,833.7969 Q494.2344,834.5469 494.2344,835.5781 L494.2344,836.6719 Q494.2344,837.9063 495.125,838.7266 Q496.0156,839.5469 497.6094,839.5469 Q498.5469,839.5469 499.2031,839.2969 Q499.5938,839.1406 500.0156,838.7031 Q500.2813,838.4375 500.4297,838.3594 Q500.5781,838.2813 500.7813,838.2813 Q501.1094,838.2813 501.3672,838.5391 Q501.625,838.7969 501.625,839.1406 Q501.625,839.4844 501.2813,839.8906 Q500.7813,840.4688 499.9844,840.7969 Q498.9063,841.25 497.6094,841.25 Q496.0938,841.25 494.8906,840.625 Q493.9063,840.125 493.2188,839.0547 Q492.5313,837.9844 492.5313,836.7031 L492.5313,835.5469 Q492.5313,834.2188 493.1484,833.0703 Q493.7656,831.9219 494.8594,831.3047 Q495.9531,830.6875 497.1875,830.6875 Q497.9219,830.6875 498.5703,830.8516 Q499.2188,831.0156 499.7656,831.375 Z "/><text fill="#000000" font-family="sans-serif" font-size="12" lengthAdjust="spacingAndGlyphs" textLength="38" x="511" y="840.4102">double</text><line style="stroke: #A80036; stroke-width: 1.5;" x1="483" x2="551" y1="851.5" y2="851.5"/><line style="stroke: #A80036; stroke-width: 1.5;" x1="483" x2="551" y1="859.5" y2="859.5"/><!--link solution.people.Alice to solution.people.Alice--><path d="M459.833,223.256 C459.833,221.226 459.833,220 459.833,220 C459.833,220 548.583,220 548.583,220 C548.583,220 548.583,302 548.583,302 C548.583,302 521.6,302 521.6,302 C521.6,302 521.6,301.782 521.6,301.782 " fill="none" id="solution.people.Alice-solution.people.Alice" style="stroke: #A80036; stroke-width: 1.0; stroke-dasharray: 7.0,7.0;"/><polygon fill="#A80036" points="521.6,299.823,517.6,308.823,521.6,304.823,525.6,308.823,521.6,299.823" style="stroke: #A80036; stroke-width: 1.0;"/><text fill="#000000" font-family="sans-serif" font-size="13" lengthAdjust="spacingAndGlyphs" textLength="7" x="529.5972" y="320.755">1</text><!--link solution.people.Alice to solution.Customer--><path d="M511.7,299.619 C511.7,340.922 511.7,401 511.7,401 C511.7,401 825.156,401 825.156,401 " fill="none" id="solution.people.Alice-solution.Customer" style="stroke: #A80036; stroke-width: 1.0;"/><polygon fill="none" points="825.157,394,845.156,401,825.156,408,825.157,394" style="stroke: #A80036; stroke-width: 1.0;"/><!--link solution.InsuranceCompany to solution.InsuranceAdjuster--><path d="M708,327.231 C708,327.231 708,409.248 708,409.248 " fill="none" id="solution.InsuranceCompany-solution.InsuranceAdjuster" style="stroke: #A80036; stroke-width: 1.0;"/><polygon fill="#A80036" points="708,414.248,712,405.248,708,409.248,704,405.248,708,414.248" style="stroke: #A80036; stroke-width: 1.0;"/><text fill="#000000" font-family="sans-serif" font-size="13" lengthAdjust="spacingAndGlyphs" textLength="7" x="700.3766" y="403.565">1</text><!--link solution.people.Alice to solution.InsuranceCompany--><path d="M531.699,262 C531.699,262 600.782,262 600.782,262 " fill="none" id="solution.people.Alice-solution.InsuranceCompany" style="stroke: #A80036; stroke-width: 1.0; stroke-dasharray: 7.0,7.0;"/><polygon fill="#A80036" points="605.782,262,596.782,258,600.782,262,596.782,266,605.782,262" style="stroke: #A80036; stroke-width: 1.0;"/><text fill="#000000" font-family="sans-serif" font-size="13" lengthAdjust="spacingAndGlyphs" textLength="7" x="591.1425" y="259.14">1</text><!--link solution.Application to solution.people.Alice--><path d="M643.224,98 C544.188,98 388.167,98 388.167,98 C388.167,98 388.167,218.167 388.167,218.167 " fill="none" id="solution.Application-solution.people.Alice" style="stroke: #A80036; stroke-width: 1.0; stroke-dasharray: 7.0,7.0;"/><polygon fill="#A80036" points="388.167,223.167,392.167,214.167,388.167,218.167,384.167,214.167,388.167,223.167" style="stroke: #A80036; stroke-width: 1.0;"/><text fill="#000000" font-family="sans-serif" font-size="13" lengthAdjust="spacingAndGlyphs" textLength="7" x="374.4066" y="212.757">1</text><!--link solution.RepairShop to common.Car--><path d="M1454.8,511.302 C1454.8,593.554 1454.8,733 1454.8,733 C1454.8,733 841.25,733 841.25,733 C841.25,733 841.25,786.809 841.25,786.809 " fill="none" id="solution.RepairShop-common.Car" style="stroke: #A80036; stroke-width: 1.0; stroke-dasharray: 7.0,7.0;"/><polygon fill="#A80036" points="841.25,791.809,845.25,782.809,841.25,786.809,837.25,782.809,841.25,791.809" style="stroke: #A80036; stroke-width: 1.0;"/><text fill="#000000" font-family="sans-serif" font-size="13" lengthAdjust="spacingAndGlyphs" textLength="7" x="839.7258" y="781.2837">1</text><!--link solution.InsuranceAdjuster to common.Car--><path d="M657,490.795 C657,580.75 657,798 657,798 C657,798 703.336,798 703.336,798 " fill="none" id="solution.InsuranceAdjuster-common.Car" style="stroke: #A80036; stroke-width: 1.0; stroke-dasharray: 7.0,7.0;"/><polygon fill="#A80036" points="708.336,798,699.336,794,703.336,798,699.336,802,708.336,798" style="stroke: #A80036; stroke-width: 1.0;"/><text fill="#000000" font-family="sans-serif" font-size="13" lengthAdjust="spacingAndGlyphs" textLength="7" x="693.4157" y="790.8978">1</text><!--link solution.RepairShop to common.BankAccount$Money--><path d="M1516.4,511.112 C1516.4,620.327 1516.4,844 1516.4,844 C1516.4,844 1188.53,844 1188.53,844 " fill="none" id="solution.RepairShop-common.BankAccount$Money" style="stroke: #A80036; stroke-width: 1.0; stroke-dasharray: 7.0,7.0;"/><polygon fill="#A80036" points="1183.53,844,1192.53,848,1188.53,844,1192.53,840,1183.53,844" style="stroke: #A80036; stroke-width: 1.0;"/><text fill="#000000" font-family="sans-serif" font-size="13" lengthAdjust="spacingAndGlyphs" textLength="7" x="1191.3364" y="841.0855">1</text><!--link solution.Customer to common.BankAccount--><path d="M907.75,518.11 C907.75,518.11 907.75,588.779 907.75,588.779 " fill="none" id="solution.Customer-common.BankAccount" style="stroke: #A80036; stroke-width: 1.0;"/><polygon fill="#A80036" points="907.75,593.779,911.75,584.779,907.75,588.779,903.75,584.779,907.75,593.779" style="stroke: #A80036; stroke-width: 1.0;"/><text fill="#000000" font-family="sans-serif" font-size="13" lengthAdjust="spacingAndGlyphs" textLength="7" x="909.518" y="583.2496">1</text><!--link solution.InsuranceCompany to solution.people.Bob--><path d="M605.875,303 C605.875,303 286.51,303 286.51,303 " fill="none" id="solution.InsuranceCompany-solution.people.Bob" style="stroke: #A80036; stroke-width: 1.0; stroke-dasharray: 7.0,7.0;"/><polygon fill="#A80036" points="281.51,303,290.51,307,286.51,303,290.51,299,281.51,303" style="stroke: #A80036; stroke-width: 1.0;"/><text fill="#000000" font-family="sans-serif" font-size="13" lengthAdjust="spacingAndGlyphs" textLength="7" x="289.5185" y="302.6682">1</text><!--link solution.Customer to solution.InsuranceCompany--><path d="M868.333,386.769 C868.333,386.769 868.333,332.029 868.333,332.029 " fill="none" id="solution.Customer-solution.InsuranceCompany" style="stroke: #A80036; stroke-width: 1.0;"/><polygon fill="#A80036" points="868.333,327.029,864.333,336.029,868.333,332.029,872.333,336.029,868.333,327.029" style="stroke: #A80036; stroke-width: 1.0;"/><text fill="#000000" font-family="sans-serif" font-size="13" lengthAdjust="spacingAndGlyphs" textLength="7" x="872.7991" y="348.5847">1</text><!--link solution.InsuranceCompany to solution.Customer--><path d="M891.167,327.231 C891.167,327.231 891.167,381.971 891.167,381.971 " fill="none" id="solution.InsuranceCompany-solution.Customer" style="stroke: #A80036; stroke-width: 1.0; stroke-dasharray: 7.0,7.0;"/><polygon fill="#A80036" points="891.167,386.971,895.167,377.971,891.167,381.971,887.167,377.971,891.167,386.971" style="stroke: #A80036; stroke-width: 1.0;"/><text fill="#000000" font-family="sans-serif" font-size="13" lengthAdjust="spacingAndGlyphs" textLength="7" x="866.5535" y="375.9837">1</text><!--link common.BankAccount to double--><path d="M707.981,663 C629.626,663 545.167,663 545.167,663 C545.167,663 545.167,814.157 545.167,814.157 " fill="none" id="common.BankAccount-double" style="stroke: #A80036; stroke-width: 1.0; stroke-dasharray: 7.0,7.0;"/><polygon fill="#A80036" points="545.167,819.157,549.167,810.157,545.167,814.157,541.167,810.157,545.167,819.157" style="stroke: #A80036; stroke-width: 1.0;"/><text fill="#000000" font-family="sans-serif" font-size="13" lengthAdjust="spacingAndGlyphs" textLength="7" x="544.1796" y="808.8114">1</text><!--link solution.RepairShop to common.BankAccount--><path d="M1331.6,511.191 C1331.6,552.699 1331.6,601 1331.6,601 C1331.6,601 975.037,601 975.037,601 " fill="none" id="solution.RepairShop-common.BankAccount" style="stroke: #A80036; stroke-width: 1.0;"/><polygon fill="#A80036" points="970.037,601,979.037,605,975.037,601,979.037,597,970.037,601" style="stroke: #A80036; stroke-width: 1.0;"/><text fill="#000000" font-family="sans-serif" font-size="13" lengthAdjust="spacingAndGlyphs" textLength="7" x="977.8149" y="595.4602">1</text><!--link solution.InsuranceCompany to common.BankAccount$Money--><path d="M833.667,327.225 C833.667,414.021 833.667,556 833.667,556 C833.667,556 978.875,556 978.875,556 C978.875,556 978.875,751.851 978.875,751.851 " fill="none" id="solution.InsuranceCompany-common.BankAccount$Money" style="stroke: #A80036; stroke-width: 1.0; stroke-dasharray: 7.0,7.0;"/><polygon fill="#A80036" points="978.875,756.851,982.875,747.851,978.875,751.851,974.875,747.851,978.875,756.851" style="stroke: #A80036; stroke-width: 1.0;"/><text fill="#000000" font-family="sans-serif" font-size="13" lengthAdjust="spacingAndGlyphs" textLength="7" x="965.29" y="746.2478">1</text><!--link solution.people.Bob to solution.InsuranceAdjuster--><path d="M200.5,306.883 C200.5,363.512 200.5,453 200.5,453 C200.5,453 585.91,453 585.91,453 " fill="none" id="solution.people.Bob-solution.InsuranceAdjuster" style="stroke: #A80036; stroke-width: 1.0;"/><polygon fill="none" points="585.91,446,605.91,453,585.91,460,585.91,446" style="stroke: #A80036; stroke-width: 1.0;"/><!--link solution.InsuranceCompany to common.BankAccount--><path d="M821.833,327.076 C821.833,327.076 821.833,588.737 821.833,588.737 " fill="none" id="solution.InsuranceCompany-common.BankAccount" style="stroke: #A80036; stroke-width: 1.0;"/><polygon fill="#A80036" points="821.833,593.737,825.833,584.737,821.833,588.737,817.833,584.737,821.833,593.737" style="stroke: #A80036; stroke-width: 1.0;"/><text fill="#000000" font-family="sans-serif" font-size="13" lengthAdjust="spacingAndGlyphs" textLength="7" x="812.0559" y="583.202">1</text><!--link solution.InsuranceCompany to double--><path d="M605.743,314 C568.061,314 538.333,314 538.333,314 C538.333,314 538.333,814.373 538.333,814.373 " fill="none" id="solution.InsuranceCompany-double" style="stroke: #A80036; stroke-width: 1.0; stroke-dasharray: 7.0,7.0;"/><polygon fill="#A80036" points="538.333,819.373,542.333,810.373,538.333,814.373,534.333,810.373,538.333,819.373" style="stroke: #A80036; stroke-width: 1.0;"/><text fill="#000000" font-family="sans-serif" font-size="13" lengthAdjust="spacingAndGlyphs" textLength="7" x="535.9027" y="808.6806">1</text><!--link common.BankAccount$Money to common.BankAccount$Money--><path d="M937,756.686 C937,749.547 937,745 937,745 C937,745 903,745 903,745 C903,745 903,948 903,948 C903,948 1052,948 1052,948 C1052,948 1052,935.273 1052,935.273 " fill="none" id="common.BankAccount$Money-common.BankAccount$Money" style="stroke: #A80036; stroke-width: 1.0; stroke-dasharray: 7.0,7.0;"/><polygon fill="#A80036" points="1052,930.273,1048,939.273,1052,935.273,1056,939.273,1052,930.273" style="stroke: #A80036; stroke-width: 1.0;"/><text fill="#000000" font-family="sans-serif" font-size="13" lengthAdjust="spacingAndGlyphs" textLength="7" x="1044.732" y="951.0559">1</text><!--link solution.people.Bob to double--><path d="M281.725,305 C391.198,305 534.917,305 534.917,305 C534.917,305 534.917,814.316 534.917,814.316 " fill="none" id="solution.people.Bob-double" style="stroke: #A80036; stroke-width: 1.0; stroke-dasharray: 7.0,7.0;"/><polygon fill="#A80036" points="534.917,819.316,538.917,810.316,534.917,814.316,530.917,810.316,534.917,819.316" style="stroke: #A80036; stroke-width: 1.0;"/><text fill="#000000" font-family="sans-serif" font-size="13" lengthAdjust="spacingAndGlyphs" textLength="7" x="531.6114" y="808.609">1</text><!--link solution.people.Bob to common.Car--><path d="M119.5,306.713 C119.5,438.667 119.5,814 119.5,814 C119.5,814 703.429,814 703.429,814 " fill="none" id="solution.people.Bob-common.Car" style="stroke: #A80036; stroke-width: 1.0; stroke-dasharray: 7.0,7.0;"/><polygon fill="#A80036" points="708.429,814,699.429,810,703.429,814,699.429,818,708.429,814" style="stroke: #A80036; stroke-width: 1.0;"/><text fill="#000000" font-family="sans-serif" font-size="13" lengthAdjust="spacingAndGlyphs" textLength="7" x="693.5166" y="808.2728">1</text><!--link solution.people.Alice to common.BankAccount--><path d="M501.8,299.789 C501.8,393.915 501.8,629 501.8,629 C501.8,629 702.664,629 702.664,629 " fill="none" id="solution.people.Alice-common.BankAccount" style="stroke: #A80036; stroke-width: 1.0; stroke-dasharray: 7.0,7.0;"/><polygon fill="#A80036" points="707.664,629,698.664,625,702.664,629,698.664,633,707.664,629" style="stroke: #A80036; stroke-width: 1.0;"/><text fill="#000000" font-family="sans-serif" font-size="13" lengthAdjust="spacingAndGlyphs" textLength="7" x="692.8688" y="625.0789">1</text><!--link solution.Application to solution.InsuranceCompany--><path d="M723,136.333 C723,136.333 723,190.885 723,190.885 " fill="none" id="solution.Application-solution.InsuranceCompany" style="stroke: #A80036; stroke-width: 1.0; stroke-dasharray: 7.0,7.0;"/><polygon fill="#A80036" points="723,195.885,727,186.885,723,190.885,719,186.885,723,195.885" style="stroke: #A80036; stroke-width: 1.0;"/><text fill="#000000" font-family="sans-serif" font-size="13" lengthAdjust="spacingAndGlyphs" textLength="7" x="711.5703" y="185.3468">1</text><!--link solution.Customer to common.Car--><path d="M987.75,518.222 C987.75,594.219 987.75,709 987.75,709 C987.75,709 752.75,709 752.75,709 C752.75,709 752.75,786.883 752.75,786.883 " fill="none" id="solution.Customer-common.Car" style="stroke: #A80036; stroke-width: 1.0;"/><polygon fill="#A80036" points="752.75,791.883,756.75,782.883,752.75,786.883,748.75,782.883,752.75,791.883" style="stroke: #A80036; stroke-width: 1.0;"/><text fill="#000000" font-family="sans-serif" font-size="13" lengthAdjust="spacingAndGlyphs" textLength="7" x="739.0352" y="780.995">1</text><!--link common.Mechanic to common.Car--><path d="M1094.5,683.692 C1094.5,702.419 1094.5,721 1094.5,721 C1094.5,721 797,721 797,721 C797,721 797,786.904 797,786.904 " fill="none" id="common.Mechanic-common.Car" style="stroke: #A80036; stroke-width: 1.0; stroke-dasharray: 7.0,7.0;"/><polygon fill="#A80036" points="797,791.904,801,782.904,797,786.904,793,782.904,797,791.904" style="stroke: #A80036; stroke-width: 1.0;"/><text fill="#000000" font-family="sans-serif" font-size="13" lengthAdjust="spacingAndGlyphs" textLength="7" x="789.5078" y="781.019">1</text><!--link solution.people.Alice to common.Car--><path d="M491.9,299.564 C491.9,423.725 491.9,809 491.9,809 C491.9,809 703.343,809 703.343,809 " fill="none" id="solution.people.Alice-common.Car" style="stroke: #A80036; stroke-width: 1.0; stroke-dasharray: 7.0,7.0;"/><polygon fill="#A80036" points="708.343,809,699.343,805,703.343,809,699.343,813,708.343,809" style="stroke: #A80036; stroke-width: 1.0;"/><text fill="#000000" font-family="sans-serif" font-size="13" lengthAdjust="spacingAndGlyphs" textLength="7" x="693.4233" y="820.2181">1</text><!--link solution.Customer to double--><path d="M845.223,505 C705.478,505 541.75,505 541.75,505 C541.75,505 541.75,814.427 541.75,814.427 " fill="none" id="solution.Customer-double" style="stroke: #A80036; stroke-width: 1.0; stroke-dasharray: 7.0,7.0;"/><polygon fill="#A80036" points="541.75,819.427,545.75,810.427,541.75,814.427,537.75,810.427,541.75,819.427" style="stroke: #A80036; stroke-width: 1.0;"/><text fill="#000000" font-family="sans-serif" font-size="13" lengthAdjust="spacingAndGlyphs" textLength="7" x="540.1953" y="808.7485">1</text><!--link solution.Customer to common.BankAccount$Money--><path d="M996.625,518.386 C996.625,518.386 996.625,751.741 996.625,751.741 " fill="none" id="solution.Customer-common.BankAccount$Money" style="stroke: #A80036; stroke-width: 1.0; stroke-dasharray: 7.0,7.0;"/><polygon fill="#A80036" points="996.625,756.741,1000.625,747.741,996.625,751.741,992.625,747.741,996.625,756.741" style="stroke: #A80036; stroke-width: 1.0;"/><text fill="#000000" font-family="sans-serif" font-size="13" lengthAdjust="spacingAndGlyphs" textLength="7" x="984.5654" y="746.1283">1</text><!--link solution.InsuranceCompany to common.Car--><path d="M605.707,321 C589.617,321 579,321 579,321 C579,321 579,803 579,803 C579,803 703.331,803 703.331,803 " fill="none" id="solution.InsuranceCompany-common.Car" style="stroke: #A80036; stroke-width: 1.0; stroke-dasharray: 7.0,7.0;"/><polygon fill="#A80036" points="708.331,803,699.331,799,703.331,803,699.331,807,708.331,803" style="stroke: #A80036; stroke-width: 1.0;"/><text fill="#000000" font-family="sans-serif" font-size="13" lengthAdjust="spacingAndGlyphs" textLength="7" x="693.4102" y="813.7025">1</text><!--link solution.RepairShop to common.Mechanic--><path d="M1393.2,511.081 C1393.2,568.034 1393.2,646 1393.2,646 C1393.2,646 1197.9,646 1197.9,646 " fill="none" id="solution.RepairShop-common.Mechanic" style="stroke: #A80036; stroke-width: 1.0;"/><polygon fill="#A80036" points="1192.9,646,1201.9,650,1197.9,646,1201.9,642,1192.9,646" style="stroke: #A80036; stroke-width: 1.0;"/><text fill="#000000" font-family="sans-serif" font-size="13" lengthAdjust="spacingAndGlyphs" textLength="7" x="1200.3572" y="642.9469">1</text><!--link solution.InsuranceCompany to solution.RepairShop--><path d="M914.004,262 C1110.16,262 1424,262 1424,262 C1424,262 1424,388.789 1424,388.789 " fill="none" id="solution.InsuranceCompany-solution.RepairShop" style="stroke: #A80036; stroke-width: 1.0;"/><polygon fill="#A80036" points="1424,393.789,1428,384.789,1424,388.789,1420,384.789,1424,393.789" style="stroke: #A80036; stroke-width: 1.0;"/><text fill="#000000" font-family="sans-serif" font-size="13" lengthAdjust="spacingAndGlyphs" textLength="7" x="1416.5734" y="383.1642">1</text><!--link common.BankAccount to common.BankAccount$Money--><path d="M953.5,697.005 C953.5,697.005 953.5,751.978 953.5,751.978 " fill="none" id="common.BankAccount-common.BankAccount$Money" style="stroke: #A80036; stroke-width: 1.0; stroke-dasharray: 7.0,7.0;"/><polygon fill="#A80036" points="953.5,756.978,957.5,747.978,953.5,751.978,949.5,747.978,953.5,756.978" style="stroke: #A80036; stroke-width: 1.0;"/><text fill="#000000" font-family="sans-serif" font-size="13" lengthAdjust="spacingAndGlyphs" textLength="7" x="937.4156" y="746.0916">1</text></g></svg>