<?xml version="1.0" encoding="UTF-8" standalone="no"?><svg xmlns="http://www.w3.org/2000/svg" xmlns:xlink="http://www.w3.org/1999/xlink" contentScriptType="application/ecmascript" contentStyleType="text/css" height="318px" preserveAspectRatio="none" style="width:236px;height:318px;" version="1.1" viewBox="0 0 236 318" width="236px" zoomAndPan="magnify"><defs><filter height="300%" id="f5hh6ylw1l7za" width="300%" x="-1" y="-1"><feGaussianBlur result="blurOut" stdDeviation="2.0"/><feColorMatrix in="blurOut" result="blurOut2" type="matrix" values="0 0 0 0 0 0 0 0 0 0 0 0 0 0 0 0 0 0 .4 0"/><feOffset dx="4.0" dy="4.0" in="blurOut2" result="blurOut3"/><feBlend in="SourceGraphic" in2="blurOut3" mode="normal"/></filter></defs><g><!--cluster crawler--><polygon fill="#FFFFFF" filter="url(#f5hh6ylw1l7za)" points="22,24,80,24,87,47.6094,214,47.6094,214,215,22,215,22,24" style="stroke: #000000; stroke-width: 1.5;"/><line style="stroke: #000000; stroke-width: 1.5;" x1="22" x2="87" y1="47.6094" y2="47.6094"/><text fill="#000000" font-family="sans-serif" font-size="14" font-weight="bold" lengthAdjust="spacingAndGlyphs" textLength="52" x="26" y="40.5332">crawler</text><!--class crawler.Crawler--><rect fill="#00FFFF" filter="url(#f5hh6ylw1l7za)" height="139.2031" id="crawler.Crawler" style="stroke: #A80036; stroke-width: 1.5;" width="159" x="38.5" y="60"/><rect fill="#00FFFF" height="40.1875" style="stroke: #A80036; stroke-width: 1.5;" width="159" x="38.5" y="60"/><ellipse cx="74.65" cy="80.0938" fill="#ADD1B2" rx="11" ry="11" style="stroke: #A80036; stroke-width: 1.0;"/><path d="M77.4156,75.9688 Q77.5719,75.75 77.7594,75.6406 Q77.9469,75.5313 78.1656,75.5313 Q78.5406,75.5313 78.775,75.7891 Q79.0094,76.0469 79.0094,76.6563 L79.0094,78.1094 Q79.0094,78.7188 78.775,78.9844 Q78.5406,79.25 78.1656,79.25 Q77.8219,79.25 77.6188,79.0469 Q77.4156,78.8594 77.3063,78.3438 Q77.2594,77.9844 77.0719,77.7969 Q76.7438,77.4219 76.1344,77.2031 Q75.525,76.9844 74.9,76.9844 Q74.1344,76.9844 73.5016,77.3125 Q72.8688,77.6406 72.3766,78.3906 Q71.8844,79.1406 71.8844,80.1719 L71.8844,81.2656 Q71.8844,82.5 72.775,83.3203 Q73.6656,84.1406 75.2594,84.1406 Q76.1969,84.1406 76.8531,83.8906 Q77.2438,83.7344 77.6656,83.2969 Q77.9313,83.0313 78.0797,82.9531 Q78.2281,82.875 78.4313,82.875 Q78.7594,82.875 79.0172,83.1328 Q79.275,83.3906 79.275,83.7344 Q79.275,84.0781 78.9313,84.4844 Q78.4313,85.0625 77.6344,85.3906 Q76.5563,85.8438 75.2594,85.8438 Q73.7438,85.8438 72.5406,85.2188 Q71.5563,84.7188 70.8688,83.6484 Q70.1813,82.5781 70.1813,81.2969 L70.1813,80.1406 Q70.1813,78.8125 70.7984,77.6641 Q71.4156,76.5156 72.5094,75.8984 Q73.6031,75.2813 74.8375,75.2813 Q75.5719,75.2813 76.2203,75.4453 Q76.8688,75.6094 77.4156,75.9688 Z "/><text fill="#000000" font-family="sans-serif" font-size="12" font-style="italic" lengthAdjust="spacingAndGlyphs" textLength="84" x="91.35" y="77.457">«GOD CLASS»</text><text fill="#000000" font-family="sans-serif" font-size="12" lengthAdjust="spacingAndGlyphs" textLength="43" x="111.85" y="92.5508">Crawler</text><line style="stroke: #A80036; stroke-width: 1.5;" x1="39.5" x2="196.5" y1="100.1875" y2="100.1875"/><rect fill="none" height="6" style="stroke: #C82930; stroke-width: 1.0;" width="6" x="46.5" y="109.6055"/><text fill="#000000" font-family="sans-serif" font-size="11" lengthAdjust="spacingAndGlyphs" text-decoration="underline" textLength="59" x="58.5" y="115.6064">int maxLinks</text><line style="stroke: #000000; stroke-width: 1.0;" x1="58.5" x2="117.5" y1="117.6064" y2="117.6064"/><rect fill="none" height="6" style="stroke: #C82930; stroke-width: 1.0;" width="6" x="46.5" y="123.4414"/><text fill="#000000" font-family="sans-serif" font-size="11" lengthAdjust="spacingAndGlyphs" text-decoration="underline" textLength="118" x="58.5" y="129.4424">java.lang.String[] httpList</text><line style="stroke: #000000; stroke-width: 1.0;" x1="58.5" x2="176.5" y1="131.4424" y2="131.4424"/><rect fill="none" height="6" style="stroke: #C82930; stroke-width: 1.0;" width="6" x="46.5" y="137.2773"/><text fill="#000000" font-family="sans-serif" font-size="11" lengthAdjust="spacingAndGlyphs" textLength="56" x="58.5" y="143.2783">int lastEntry</text><line style="stroke: #A80036; stroke-width: 1.5;" x1="39.5" x2="196.5" y1="149.6953" y2="149.6953"/><rect fill="#F24D5C" height="6" style="stroke: #C82930; stroke-width: 1.0;" width="6" x="46.5" y="159.1133"/><text fill="#000000" font-family="sans-serif" font-size="11" lengthAdjust="spacingAndGlyphs" text-decoration="underline" textLength="64" x="58.5" y="165.1143">void &lt;clinit&gt;()</text><line style="stroke: #000000; stroke-width: 1.0;" x1="58.5" x2="122.5" y1="167.1143" y2="167.1143"/><ellipse cx="49.5" cy="175.9492" fill="#84BE84" rx="3" ry="3" style="stroke: #038048; stroke-width: 1.0;"/><text fill="#000000" font-family="sans-serif" font-size="11" lengthAdjust="spacingAndGlyphs" textLength="56" x="58.5" y="178.9502">void &lt;init&gt;()</text><ellipse cx="49.5" cy="189.7852" fill="#84BE84" rx="3" ry="3" style="stroke: #038048; stroke-width: 1.0;"/><text fill="#000000" font-family="sans-serif" font-size="11" lengthAdjust="spacingAndGlyphs" text-decoration="underline" textLength="133" x="58.5" y="192.7861">void main(java.lang.String[])</text><line style="stroke: #000000; stroke-width: 1.0;" x1="58.5" x2="191.5" y1="194.7861" y2="194.7861"/><!--class int--><rect fill="#FEFECE" filter="url(#f5hh6ylw1l7za)" height="48" id="int" style="stroke: #A80036; stroke-width: 1.5;" width="45" x="95.5" y="259"/><ellipse cx="110.5" cy="275" fill="#ADD1B2" rx="11" ry="11" style="stroke: #A80036; stroke-width: 1.0;"/><path d="M113.2656,270.875 Q113.4219,270.6563 113.6094,270.5469 Q113.7969,270.4375 114.0156,270.4375 Q114.3906,270.4375 114.625,270.6953 Q114.8594,270.9531 114.8594,271.5625 L114.8594,273.0156 Q114.8594,273.625 114.625,273.8906 Q114.3906,274.1563 114.0156,274.1563 Q113.6719,274.1563 113.4688,273.9531 Q113.2656,273.7656 113.1563,273.25 Q113.1094,272.8906 112.9219,272.7031 Q112.5938,272.3281 111.9844,272.1094 Q111.375,271.8906 110.75,271.8906 Q109.9844,271.8906 109.3516,272.2188 Q108.7188,272.5469 108.2266,273.2969 Q107.7344,274.0469 107.7344,275.0781 L107.7344,276.1719 Q107.7344,277.4063 108.625,278.2266 Q109.5156,279.0469 111.1094,279.0469 Q112.0469,279.0469 112.7031,278.7969 Q113.0938,278.6406 113.5156,278.2031 Q113.7813,277.9375 113.9297,277.8594 Q114.0781,277.7813 114.2813,277.7813 Q114.6094,277.7813 114.8672,278.0391 Q115.125,278.2969 115.125,278.6406 Q115.125,278.9844 114.7813,279.3906 Q114.2813,279.9688 113.4844,280.2969 Q112.4063,280.75 111.1094,280.75 Q109.5938,280.75 108.3906,280.125 Q107.4063,279.625 106.7188,278.5547 Q106.0313,277.4844 106.0313,276.2031 L106.0313,275.0469 Q106.0313,273.7188 106.6484,272.5703 Q107.2656,271.4219 108.3594,270.8047 Q109.4531,270.1875 110.6875,270.1875 Q111.4219,270.1875 112.0703,270.3516 Q112.7188,270.5156 113.2656,270.875 Z "/><text fill="#000000" font-family="sans-serif" font-size="12" lengthAdjust="spacingAndGlyphs" textLength="13" x="124.5" y="279.9102">int</text><line style="stroke: #A80036; stroke-width: 1.5;" x1="96.5" x2="139.5" y1="291" y2="291"/><line style="stroke: #A80036; stroke-width: 1.5;" x1="96.5" x2="139.5" y1="299" y2="299"/><!--link crawler.Crawler to int--><path d="M118,199.064 C118,199.064 118,253.8256 118,253.8256 " fill="none" id="crawler.Crawler-int" style="stroke: #A80036; stroke-width: 1.0; stroke-dasharray: 7.0,7.0;"/><polygon fill="#A80036" points="118,258.8256,122,249.8256,118,253.8256,114,249.8256,118,258.8256" style="stroke: #A80036; stroke-width: 1.0;"/><text fill="#000000" font-family="sans-serif" font-size="13" lengthAdjust="spacingAndGlyphs" textLength="7" x="110.1031" y="248.1211">1</text></g></svg>